<svg width="20" height="23" viewBox="0 0 20 23" fill="none" xmlns="http://www.w3.org/2000/svg">
<path d="M10 1.4375C10.9472 1.4375 11.8556 1.81613 12.5254 2.49009C13.1952 3.16404 13.5714 4.07813 13.5714 5.03125V5.75H6.42857V5.03125C6.42857 4.07813 6.80485 3.16404 7.47462 2.49009C8.14439 1.81613 9.0528 1.4375 10 1.4375V1.4375ZM15 5.75V5.03125C15 3.69688 14.4732 2.41716 13.5355 1.47362C12.5979 0.530077 11.3261 0 10 0C8.67392 0 7.40215 0.530077 6.46447 1.47362C5.52678 2.41716 5 3.69688 5 5.03125V5.75H0V20.125C0 20.8875 0.30102 21.6188 0.836838 22.1579C1.37266 22.6971 2.09938 23 2.85714 23H17.1429C17.9006 23 18.6273 22.6971 19.1632 22.1579C19.699 21.6188 20 20.8875 20 20.125V5.75H15ZM1.42857 7.1875H18.5714V20.125C18.5714 20.5062 18.4209 20.8719 18.153 21.1415C17.8851 21.411 17.5217 21.5625 17.1429 21.5625H2.85714C2.47826 21.5625 2.1149 21.411 1.84699 21.1415C1.57908 20.8719 1.42857 20.5062 1.42857 20.125V7.1875Z" fill="#161616"/>
</svg>
