<svg width="68" height="27" viewBox="0 0 68 27" fill="none" xmlns="http://www.w3.org/2000/svg">
<path d="M32.1178 13.1889V21.1077H29.6104V1.55998H36.2607C37.8648 1.5288 39.4067 2.13675 40.5748 3.25911C41.7429 4.30352 42.397 5.81559 42.3659 7.37442C42.397 8.94884 41.7429 10.4609 40.5748 11.5209C39.4067 12.6277 37.9739 13.1889 36.2762 13.1889H32.1178V13.1889ZM32.1178 3.96058V10.7883H36.323C37.2574 10.8194 38.1608 10.4453 38.7993 9.77502C40.1231 8.49678 40.1387 6.39236 38.8616 5.06735L38.7993 5.005C38.1608 4.31911 37.2574 3.94499 36.323 3.97617L32.1178 3.96058V3.96058ZM48.144 7.29648C49.9974 7.29648 51.4614 7.79531 52.536 8.77737C53.6107 9.77502 54.1402 11.1312 54.1402 12.8615V21.0921H51.7417V19.2371H51.6327C50.5892 20.7648 49.2187 21.5286 47.4899 21.5286C46.0259 21.5286 44.7799 21.0921 43.7987 20.2192C42.8331 19.4086 42.288 18.2083 42.3191 16.9457C42.3191 15.5583 42.8487 14.4671 43.8922 13.6409C44.9357 12.8147 46.3374 12.4094 48.0817 12.4094C49.5769 12.4094 50.7917 12.69 51.7573 13.22V12.6433C51.7573 11.7859 51.3835 10.9753 50.7294 10.4297C50.0597 9.83738 49.2031 9.51002 48.3153 9.51002C46.9136 9.51002 45.8078 10.1024 44.9824 11.2871L42.7708 9.89973C43.97 8.16943 45.7611 7.29648 48.144 7.29648V7.29648ZM44.9045 17.008C44.9045 17.6627 45.216 18.2707 45.73 18.6448C46.2906 19.0812 46.9759 19.3151 47.6768 19.2995C48.7358 19.2995 49.7482 18.8786 50.4958 18.1304C51.3212 17.3509 51.7417 16.4312 51.7417 15.3712C50.963 14.7477 49.8728 14.4359 48.4711 14.4359C47.4587 14.4359 46.6021 14.6853 45.9169 15.1686C45.2472 15.6674 44.9045 16.2754 44.9045 17.008V17.008ZM67.9081 7.73295L59.529 27.0001H56.9436L60.0585 20.266L54.5451 7.74854H57.2707L61.2422 17.3509H61.3045L65.1825 7.74854L67.9081 7.73295Z" fill="white"/>
<path d="M21.9807 11.4739C21.9807 10.7101 21.9184 9.94624 21.7938 9.198H11.2188V13.516H17.2772C17.028 14.9033 16.2182 16.1504 15.0345 16.9298V19.7357H18.6478C20.7659 17.7872 21.9807 14.9033 21.9807 11.4739Z" fill="#4285F4"/>
<path d="M11.2146 22.4481C14.2361 22.4481 16.7903 21.4505 18.6436 19.7358L15.0304 16.9299C14.018 17.6158 12.7253 18.0055 11.2146 18.0055C8.28659 18.0055 5.81025 16.0257 4.9225 13.3757H1.2002V16.2752C3.10028 20.0475 6.97834 22.4481 11.2146 22.4481Z" fill="#34A853"/>
<path d="M4.92543 13.3752C4.45819 11.9878 4.45819 10.4758 4.92543 9.0728V6.18896H1.20312C0.412192 7.74931 0 9.47432 0 11.224C0 12.9737 0.412192 14.6987 1.20312 16.259L4.92543 13.3752Z" fill="#FBBC04"/>
<path d="M11.2146 4.44335C12.8188 4.41217 14.3607 5.02012 15.5132 6.12689L18.7059 2.93128C16.6813 1.01392 14.0024 -0.0304983 11.2146 0.000678371C6.97834 0.000678371 3.10029 2.40128 1.2002 6.18924L4.9225 9.08867C5.81025 6.42306 8.2866 4.44335 11.2146 4.44335Z" fill="#EA4335"/>
</svg>
