<svg width="56" height="55" viewBox="0 0 56 55" fill="none" xmlns="http://www.w3.org/2000/svg">
<path d="M25.087 1.68906C25.9781 1.23714 26.9807 1 28 1C29.0193 1 30.0219 1.23714 30.913 1.68906L53.458 13.1238C53.9254 13.3611 54.3148 13.7083 54.586 14.1292C54.8571 14.5502 55 15.0297 55 15.5181V38.0779C54.9997 39.055 54.7134 40.0142 54.1706 40.8561C53.6278 41.6981 52.8484 42.3922 51.913 42.8666L30.913 53.5233C30.0219 53.9752 29.0193 54.2123 28 54.2123C26.9807 54.2123 25.9781 53.9752 25.087 53.5233L4.087 42.8666C3.15207 42.3925 2.3729 41.6988 1.83014 40.8573C1.28739 40.0159 1.00079 39.0572 1 38.0807V15.5181C0.999978 15.0297 1.14293 14.5502 1.41405 14.1292C1.68516 13.7083 2.07459 13.3611 2.542 13.1238L25.09 1.68906H25.087Z" stroke="black" stroke-linecap="round" stroke-linejoin="round"/>
<path d="M1 13.9073L28 27.6049M28 27.6049L55 13.9073M28 27.6049V55" stroke="black" stroke-linejoin="round"/>
<path d="M14.5 20.7561L41.5 7.05861M10 28.5035L19 33.0839" stroke="black" stroke-linecap="round" stroke-linejoin="round"/>
</svg>
