<svg width="105" height="25" viewBox="0 0 105 25" fill="none" xmlns="http://www.w3.org/2000/svg">
<g clip-path="url(#clip0_214_163)">
<path fill-rule="evenodd" clip-rule="evenodd" d="M9.16201 5.88452H16.337C20.1893 5.88452 21.6395 7.80116 21.4154 10.617C21.045 15.2657 18.1854 17.8376 14.3923 17.8376H12.4772C11.9568 17.8376 11.6068 18.1761 11.466 19.0935L10.6529 24.4266C10.5992 24.7724 10.414 24.9726 10.1362 24.9999H5.62824C5.20412 24.9999 5.0541 24.6814 5.16522 23.9915L7.91371 6.89472C8.02113 6.21033 8.40266 5.88452 9.16201 5.88452Z" fill="#009EE3"/>
<path fill-rule="evenodd" clip-rule="evenodd" d="M4.67532 0H11.8577C13.8802 0 16.2805 0.0637058 17.8844 1.45613C18.9567 2.38624 19.5197 3.86604 19.3901 5.4605C18.9493 10.85 15.6693 13.8697 11.2687 13.8697H7.72754C7.12377 13.8697 6.72557 14.2628 6.55518 15.3258L5.56617 21.5144C5.50134 21.9148 5.3254 22.1514 5.01054 22.1806H0.578515C0.0877131 22.1806 -0.0863841 21.8165 0.0414095 21.012L3.22699 1.17583C3.35478 0.378593 3.80113 0 4.67532 0Z" fill="#113984"/>
<path fill-rule="evenodd" clip-rule="evenodd" d="M6.6582 14.6979L7.91206 6.89483C8.02134 6.21045 8.40286 5.88281 9.16222 5.88281H16.3372C17.5244 5.88281 18.4856 6.06483 19.2375 6.40156C18.5171 11.1995 15.3593 13.8642 11.2254 13.8642H7.68981C7.21568 13.8661 6.86749 14.0991 6.6582 14.6979Z" fill="#172C70"/>
<path fill-rule="evenodd" clip-rule="evenodd" d="M36.4822 5.00366C38.9029 5.00366 41.1365 6.29416 40.8309 9.5104C40.4605 13.3328 38.3769 15.4478 35.0894 15.4569H32.2169C31.8038 15.4569 31.6038 15.7882 31.4964 16.4671L30.9408 19.9381C30.8574 20.4623 30.5833 20.7208 30.1796 20.7208H27.507C27.081 20.7208 26.9329 20.4532 27.0273 19.8544L29.2332 5.94287C29.3424 5.25849 29.6036 5.00366 30.0796 5.00366H36.4766H36.4822ZM32.1298 12.4518H34.306C35.6673 12.4008 36.5711 11.4744 36.6618 9.80344C36.7174 8.77141 36.0081 8.03242 34.8801 8.03788L32.8317 8.04698L32.1298 12.4518ZM48.0966 19.656C48.3411 19.4376 48.5892 19.3247 48.5541 19.5941L48.467 20.2385C48.4226 20.5752 48.5578 20.7536 48.8763 20.7536H51.2507C51.6507 20.7536 51.8452 20.5952 51.9434 19.9873L53.4065 10.9629C53.4806 10.5097 53.3676 10.2876 53.0176 10.2876H50.4061C50.1709 10.2876 50.0561 10.4168 49.995 10.77L49.8987 11.3251C49.8487 11.6145 49.7135 11.6655 49.5875 11.3742C49.1449 10.344 48.0151 9.88171 46.439 9.91811C42.7774 9.99274 40.3086 12.7248 40.0437 16.2268C39.84 18.9352 41.8143 21.063 44.4184 21.063C46.3075 21.063 47.152 20.5169 48.104 19.6615L48.0966 19.656ZM46.1075 18.2672C44.5313 18.2672 43.4331 17.0313 43.6609 15.517C43.8887 14.0026 45.3629 12.7667 46.939 12.7667C48.5152 12.7667 49.6134 14.0026 49.3856 15.517C49.1578 17.0313 47.6854 18.2672 46.1075 18.2672ZM58.0534 10.2585H55.6457C55.1493 10.2585 54.9474 10.6225 55.1049 11.0703L58.0941 19.6724L55.1623 23.7659C54.916 24.1081 55.1067 24.4194 55.4531 24.4194H58.1589C58.3166 24.4373 58.4763 24.4103 58.6188 24.3415C58.7613 24.2728 58.8807 24.1653 58.9627 24.0317L68.1565 11.0721C68.4398 10.6735 68.3065 10.2548 67.8416 10.2548H65.2802C64.8413 10.2548 64.6653 10.4259 64.4134 10.7845L60.5796 16.245L58.8664 10.7718C58.7664 10.4405 58.5164 10.2585 58.0552 10.2585H58.0534Z" fill="#113984"/>
<path fill-rule="evenodd" clip-rule="evenodd" d="M77.7206 5.00364C80.1412 5.00364 82.3749 6.29414 82.0693 9.51038C81.6989 13.3327 79.6153 15.4478 76.3278 15.4569H73.4571C73.0441 15.4569 72.8441 15.7881 72.7366 16.4671L72.181 19.9381C72.0977 20.4623 71.8236 20.7208 71.4198 20.7208H68.7472C68.3213 20.7208 68.1731 20.4532 68.2676 19.8544L70.4771 5.93921C70.5864 5.25482 70.8475 5 71.3235 5H77.7206V5.00364ZM73.3682 12.4518H75.5444C76.9057 12.4008 77.8095 11.4743 77.9002 9.80342C77.9558 8.77139 77.2465 8.0324 76.1185 8.03786L74.0701 8.04696L73.3682 12.4518ZM89.335 19.656C89.5795 19.4376 89.8276 19.3247 89.7924 19.5941L89.7054 20.2384C89.6609 20.5752 89.7961 20.7536 90.1147 20.7536H92.4891C92.8891 20.7536 93.0836 20.5952 93.1817 19.9873L94.6449 10.9629C94.719 10.5096 94.606 10.2876 94.256 10.2876H91.6482C91.413 10.2876 91.2982 10.4168 91.2371 10.7699L91.1408 11.3251C91.0907 11.6145 90.9555 11.6655 90.8296 11.3742C90.387 10.344 89.2572 9.88169 87.6811 9.9181C84.0195 9.99272 81.5507 12.7248 81.2858 16.2268C81.0821 18.9352 83.0564 21.063 85.6604 21.063C87.5496 21.063 88.3941 20.5169 89.3461 19.6615L89.335 19.656ZM87.3477 18.2672C85.7716 18.2672 84.6733 17.0313 84.9011 15.5169C85.1289 14.0026 86.6032 12.7667 88.1793 12.7667C89.7554 12.7667 90.8537 14.0026 90.6259 15.5169C90.3981 17.0313 88.9238 18.2672 87.3477 18.2672ZM98.299 20.7681H95.558C95.5103 20.7702 95.4627 20.7619 95.4187 20.7439C95.3746 20.7258 95.3352 20.6984 95.3032 20.6636C95.2711 20.6289 95.2473 20.5876 95.2334 20.5427C95.2195 20.4978 95.2159 20.4505 95.2227 20.4041L97.6304 5.41318C97.6534 5.31087 97.711 5.21922 97.7937 5.15312C97.8764 5.08703 97.9795 5.05038 98.0861 5.04915H100.827C100.875 5.04705 100.922 5.05533 100.966 5.07339C101.01 5.09145 101.05 5.11884 101.082 5.15362C101.114 5.1884 101.138 5.2297 101.152 5.27456C101.166 5.31943 101.169 5.36677 101.162 5.41318L98.7547 20.4041C98.7324 20.5071 98.6752 20.5995 98.5924 20.6664C98.5096 20.7332 98.4062 20.7703 98.299 20.7718V20.7681Z" fill="#009EE3"/>
</g>
<defs>
<clipPath id="clip0_214_163">
<rect width="105" height="25" fill="white"/>
</clipPath>
</defs>
</svg>
