<svg width="54" height="54" viewBox="0 0 54 54" fill="none" xmlns="http://www.w3.org/2000/svg">
<path d="M44.963 6.71255H53.1508C53.3738 6.71255 53.5876 6.62358 53.7453 6.46522C53.903 6.30687 53.9916 6.09209 53.9916 5.86814C53.9916 5.64419 53.903 5.42941 53.7453 5.27105C53.5876 5.11269 53.3738 5.02373 53.1508 5.02373H43.0611C42.8381 5.02373 42.6242 5.11269 42.4666 5.27105C42.3089 5.42941 42.2203 5.64419 42.2203 5.86814V16.0011C42.2203 16.225 42.3089 16.4398 42.4666 16.5981C42.6242 16.7565 42.8381 16.8455 43.0611 16.8455C43.2841 16.8455 43.498 16.7565 43.6556 16.5981C43.8133 16.4398 43.9019 16.225 43.9019 16.0011V8.03489L44.9294 9.06676C49.6934 13.8512 52.3184 20.213 52.3184 26.9784C52.3184 33.7438 49.6934 40.1056 44.9294 44.89C41.4659 48.3674 37.07 50.7578 32.2773 51.7699C27.4847 52.7819 22.5024 52.3719 17.9378 50.5898C17.7302 50.5087 17.499 50.5138 17.2951 50.6039C17.0912 50.694 16.9313 50.8617 16.8506 51.0702C16.7699 51.2787 16.7749 51.5109 16.8647 51.7157C16.9544 51.9204 17.1214 52.081 17.329 52.1621C22.1976 54.0634 27.5119 54.501 32.6238 53.4214C37.7358 52.3419 42.4245 49.7919 46.1183 46.0823C51.2001 40.9804 54 34.193 54 26.9767C54 19.7604 51.2001 12.9747 46.1183 7.87277L44.963 6.71255ZM11.1104 37.1113C10.8874 37.1113 10.6736 37.2003 10.5159 37.3586C10.3582 37.517 10.2696 37.7318 10.2696 37.9557V46.1296L9.07063 44.9255C4.30661 40.141 1.68161 33.7793 1.68161 27.0138C1.68161 20.2484 4.30661 13.885 9.07063 9.10054C12.4911 5.67541 16.8166 3.30558 21.5358 2.27127C26.2549 1.23697 31.1703 1.58145 35.7007 3.26398C35.9064 3.32792 36.1288 3.31028 36.322 3.21468C36.5152 3.11909 36.6647 2.9528 36.7396 2.74999C36.8145 2.54718 36.8092 2.32325 36.7248 2.12422C36.6405 1.92519 36.4834 1.76618 36.2859 1.67986C31.4534 -0.113337 26.2108 -0.479902 21.1775 0.623481C16.1442 1.72686 11.5306 4.25408 7.88173 7.90654C2.79989 13.0085 0 19.7958 0 27.0122C0 34.2285 2.79989 41.0159 7.88173 46.1178L9.00168 47.2442H1.02074C0.797744 47.2442 0.583881 47.3332 0.426199 47.4915C0.268518 47.6499 0.179933 47.8647 0.179933 48.0886C0.179933 48.3126 0.268518 48.5274 0.426199 48.6857C0.583881 48.8441 0.797744 48.933 1.02074 48.933H10.8683C10.9355 48.9499 11.5006 48.8908 11.6654 48.7253C11.6721 48.7186 11.6738 48.7101 11.6805 48.7034C11.7654 48.6252 11.8334 48.5303 11.88 48.4245C11.9266 48.3187 11.9508 48.2043 11.9512 48.0886V37.9557C11.9512 37.7318 11.8626 37.517 11.705 37.3586C11.5473 37.2003 11.3334 37.1113 11.1104 37.1113Z" fill="#161616"/>
</svg>
