<svg width="110" height="26" viewBox="0 0 110 26" fill="none" xmlns="http://www.w3.org/2000/svg">
<path d="M57.4503 5.24691C55.5418 5.24691 53.9428 6.3032 52.9123 7.5777V5.39618C52.9123 5.35556 52.8963 5.31654 52.8678 5.28758C52.8398 5.25859 52.8008 5.24192 52.7601 5.24121H49.1953C49.1543 5.24121 49.1146 5.2575 49.0856 5.28656C49.0566 5.31565 49.04 5.3551 49.04 5.39618V25.7759C49.0411 25.8163 49.0579 25.8553 49.0869 25.8835C49.1159 25.912 49.1548 25.9281 49.1953 25.9281H53.01C53.0502 25.9281 53.0889 25.912 53.1174 25.8835C53.1459 25.855 53.162 25.8161 53.162 25.7759V19.0764H53.2195C53.8249 20.0006 55.4812 21.1086 57.6458 21.1086C61.7155 21.1086 65.1086 17.7331 65.1086 13.172C65.1116 8.79473 61.7359 5.24691 57.4503 5.24691ZM57.0973 17.225C56.2941 17.245 55.5024 17.0251 54.8246 16.5934C54.1469 16.1616 53.6127 15.5377 53.2907 14.8012C52.969 14.0647 52.8739 13.249 53.0179 12.4582C53.1615 11.6674 53.5379 10.9374 54.0983 10.3614C54.6589 9.7853 55.3784 9.38935 56.1651 9.22402C56.9515 9.0587 57.7695 9.13146 58.5144 9.43307C59.2596 9.73466 59.8976 10.2514 60.3478 10.9174C60.7978 11.5834 61.0391 12.3683 61.0414 13.172C61.0495 13.6974 60.9538 14.2193 60.7601 14.7077C60.5665 15.1961 60.2779 15.6414 59.9114 16.0179C59.5451 16.3945 59.1079 16.695 58.6246 16.9022C58.1418 17.1093 57.6229 17.219 57.0973 17.225Z" fill="white"/>
<path d="M37.7516 4.35181C34.1951 4.35181 32.4213 5.56024 30.9973 6.52757L30.9543 6.55626C30.881 6.6065 30.8293 6.68264 30.8095 6.76938C30.7899 6.85614 30.8036 6.9471 30.8482 7.02413L32.2546 9.44669C32.281 9.49205 32.3172 9.53101 32.3602 9.56076C32.4034 9.59054 32.4526 9.61042 32.5045 9.61894C32.5551 9.62808 32.607 9.62586 32.6567 9.61245C32.7063 9.59904 32.7524 9.57484 32.7916 9.54142L32.9033 9.4496C33.6352 8.83533 34.8093 8.01438 37.651 7.79049C39.2325 7.66423 40.5989 8.07755 41.6063 9.01903C42.7144 10.0409 43.3776 11.6914 43.3776 13.4337C43.3776 16.6399 41.4887 18.6549 38.4547 18.6951C35.9545 18.6807 34.2753 17.3776 34.2753 15.4516C34.2753 14.4297 34.7375 13.7638 35.6389 13.0978C35.7076 13.0486 35.7563 12.9762 35.7759 12.8939C35.7954 12.8115 35.7845 12.7249 35.7451 12.6501L34.482 10.2619C34.4588 10.2192 34.4272 10.1814 34.3893 10.1509C34.3514 10.1204 34.3079 10.0976 34.2611 10.0839C34.2132 10.0697 34.1631 10.0657 34.1137 10.0721C34.0641 10.0785 34.0165 10.0953 33.974 10.1213C32.5561 10.9623 30.8166 12.5008 30.9113 15.4573C31.0261 19.2204 34.1549 22.0936 38.2221 22.2113H38.426H38.7044C43.5379 22.0534 47.0284 18.4655 47.0284 13.6002C47.0284 9.13383 43.7733 4.35181 37.7516 4.35181Z" fill="white"/>
<path d="M80.1416 6.64795H77.7187C77.6622 6.64869 77.6077 6.67162 77.5675 6.7118C77.5271 6.75202 77.5042 6.80635 77.5039 6.86323V11.9466C77.5042 12.0033 77.5273 12.0573 77.5678 12.097C77.608 12.1368 77.6622 12.1591 77.7187 12.1591H80.1416C81.6169 12.1591 82.7049 10.9966 82.7049 9.4035C82.7049 7.81044 81.6169 6.64795 80.1416 6.64795Z" fill="white"/>
<path d="M87.584 15.6407C87.584 16.3784 88.2068 16.7889 89.2917 16.7889C90.7671 16.7889 91.6395 15.9909 91.6395 14.5758V14.1682L89.4296 14.283C88.264 14.3404 87.584 14.8255 87.584 15.6407Z" fill="white"/>
<path d="M105.523 0.0459238H72.9733C72.4396 0.0459233 71.9105 0.15115 71.4176 0.355587C70.9241 0.560024 70.4759 0.859667 70.0987 1.23739C69.721 1.61512 69.4217 2.06352 69.2176 2.55698C69.0133 3.05043 68.9087 3.57927 68.9092 4.11326V21.9325C68.9092 23.0108 69.3372 24.0449 70.0995 24.8076C70.8617 25.5703 71.8955 25.9991 72.9733 25.9999H105.523C106.058 26.0014 106.588 25.8975 107.083 25.6942C107.577 25.4909 108.026 25.1919 108.405 24.8147C108.784 24.4375 109.085 23.9893 109.29 23.4957C109.496 23.0021 109.602 22.4729 109.603 21.9383V4.11899C109.603 3.58331 109.499 3.05267 109.294 2.55761C109.09 2.06257 108.789 1.61285 108.41 1.23432C108.031 0.855804 107.581 0.555949 107.086 0.352001C106.59 0.148051 106.059 0.0440308 105.523 0.0459238ZM80.2641 14.1596H77.7038C77.6468 14.1596 77.5923 14.1823 77.5516 14.2226C77.5114 14.263 77.4885 14.3178 77.4885 14.3749V18.0202C77.4885 18.0773 77.4658 18.1321 77.4256 18.1724C77.3851 18.2128 77.3304 18.2355 77.2734 18.2355H75.4705C75.414 18.2348 75.3593 18.2118 75.3191 18.1716C75.2789 18.1314 75.2565 18.0771 75.2555 18.0202V4.87102C75.2555 4.81396 75.2781 4.75919 75.3188 4.7188C75.359 4.67844 75.4135 4.65576 75.4705 4.65576H80.2641C82.9796 4.65576 84.9227 6.63345 84.9227 9.40911C84.9227 12.1848 82.9939 14.1653 80.2788 14.1653L80.2641 14.1596ZM93.755 18.0174C93.7555 18.0459 93.7504 18.0742 93.7395 18.1006C93.7288 18.1271 93.713 18.1512 93.6932 18.1715C93.6728 18.1917 93.6491 18.2079 93.6227 18.2189C93.5967 18.2298 93.5682 18.2355 93.5397 18.2355H91.8376C91.8091 18.2355 91.7808 18.2298 91.7546 18.2189C91.7281 18.2079 91.7042 18.1917 91.6844 18.1715C91.6645 18.1512 91.6485 18.1271 91.638 18.1006C91.6274 18.0742 91.622 18.0459 91.6225 18.0174V17.6241C91.6251 17.5896 91.6169 17.5551 91.5983 17.5258C91.5803 17.4964 91.553 17.4737 91.5205 17.4611C91.4884 17.4486 91.453 17.4468 91.4197 17.456C91.3858 17.4651 91.3566 17.4849 91.3354 17.5122C90.8272 18.0662 90.0006 18.468 88.683 18.468C86.7429 18.468 85.4595 17.4577 85.4595 15.7125C85.4409 15.2869 85.5287 14.8635 85.7153 14.4805C85.9016 14.0975 86.181 13.7672 86.5276 13.5195C87.2278 12.9942 88.3127 12.7215 89.923 12.6584L91.6307 12.601V12.1015C91.6307 11.094 90.9534 10.6663 89.8654 10.6663C88.7777 10.6663 88.0916 11.051 87.9312 11.6796C87.9182 11.724 87.891 11.7628 87.8533 11.7899C87.8162 11.8169 87.7706 11.8306 87.7243 11.8288H86.0395C86.0084 11.8296 85.9776 11.8235 85.9491 11.8112C85.9211 11.7988 85.8954 11.7803 85.8748 11.757C85.8545 11.7337 85.8392 11.7063 85.8305 11.6765C85.8216 11.6468 85.8194 11.6155 85.8242 11.5849C86.0769 10.0922 87.311 8.95843 89.9433 8.95843C92.739 8.95843 93.7463 10.2587 93.7463 12.7416L93.755 18.0174ZM104.358 9.48658L100.57 19.5932C99.7083 21.9411 98.2012 22.544 96.5507 22.544C96.24 22.5515 95.9295 22.5138 95.6294 22.432C95.5826 22.4194 95.5416 22.3918 95.5116 22.3534C95.4823 22.3151 95.4663 22.268 95.4658 22.2196V20.6839C95.4658 20.6518 95.4726 20.6201 95.4861 20.5909C95.4999 20.5618 95.5195 20.536 95.5442 20.5155C95.5691 20.4949 95.5979 20.4801 95.6289 20.472C95.66 20.4639 95.6925 20.4627 95.7241 20.4686C95.9844 20.518 96.2486 20.543 96.5136 20.5433C96.9699 20.5662 97.4209 20.4352 97.7942 20.1714C98.1671 19.9075 98.4409 19.526 98.5715 19.088L98.6837 18.735C98.701 18.6877 98.701 18.6358 98.6837 18.5886L95.1413 9.48948C95.1306 9.45695 95.1275 9.42229 95.1326 9.38839C95.138 9.35447 95.1509 9.32222 95.1703 9.29428C95.1904 9.26633 95.2166 9.24345 95.2469 9.22747C95.2772 9.21151 95.311 9.20291 95.3451 9.20242H97.0676C97.1116 9.20286 97.1544 9.21645 97.1908 9.24154C97.2272 9.26659 97.2552 9.30196 97.2712 9.34309L99.6768 15.7613C99.6928 15.8032 99.7208 15.8393 99.7577 15.8648C99.7949 15.8903 99.8384 15.9039 99.8834 15.9039C99.928 15.9039 99.9722 15.8903 100.009 15.8648C100.046 15.8393 100.074 15.8032 100.09 15.7613L102.177 9.36032C102.191 9.31667 102.218 9.27865 102.256 9.2518C102.293 9.22492 102.337 9.21065 102.383 9.21105H104.149C104.183 9.2109 104.216 9.21884 104.247 9.23406C104.277 9.24933 104.304 9.27152 104.324 9.29888C104.345 9.32624 104.358 9.35798 104.364 9.3916C104.37 9.42517 104.368 9.45968 104.358 9.49233V9.48658Z" fill="white"/>
<path d="M9.11356 11.3754C9.11356 11.3754 7.17318 10.919 6.45846 10.7353C5.74372 10.5516 4.4951 10.1612 4.4951 9.21688C4.4951 8.27252 5.5026 7.97112 6.52448 7.97112C7.54634 7.97112 8.68302 8.21798 8.77199 9.35179C8.77558 9.39267 8.79439 9.43064 8.82468 9.45833C8.85499 9.48597 8.89456 9.50119 8.93559 9.50106L12.6929 9.48671C12.715 9.48676 12.7369 9.48225 12.7572 9.47347C12.7775 9.46469 12.7957 9.45181 12.8108 9.43563C12.8259 9.41949 12.8375 9.40038 12.8449 9.37953C12.8522 9.35866 12.8553 9.33652 12.8537 9.31446C12.6212 5.68632 9.4379 4.38892 6.5015 4.38892C3.01972 4.38892 0.473711 6.68522 0.473711 9.21688C0.473711 11.0654 0.996121 12.7991 5.10362 14.0047C5.82409 14.2142 6.80291 14.4869 7.65829 14.7252C8.68587 15.0122 9.23985 15.4456 9.23985 16.1288C9.23985 16.921 8.09171 17.4721 6.96365 17.4721C5.33041 17.4721 4.17076 16.8664 4.07604 15.7785C4.0711 15.7388 4.05173 15.7021 4.02155 15.6756C3.99139 15.6492 3.95255 15.6347 3.91242 15.635L0.16371 15.6523C0.141733 15.6523 0.119981 15.6567 0.0997467 15.6653C0.079513 15.6738 0.061215 15.6864 0.0459446 15.7022C0.0306744 15.718 0.0187427 15.7367 0.0108664 15.7572C0.00299015 15.7778 -0.000670363 15.7997 0.000100782 15.8216C0.172324 19.246 3.479 21.0916 6.56182 21.0916C11.1544 21.0916 13.2297 18.5083 13.2297 16.0886C13.2354 14.9519 12.9742 12.3628 9.11356 11.3754Z" fill="white"/>
<path d="M28.1464 8.29541C27.2653 6.44688 25.5948 5.2528 23.0774 5.2528C22.3047 5.26626 21.5455 5.45706 20.8582 5.81037C20.171 6.16372 19.574 6.6702 19.1134 7.29076L19.0216 7.40269V0.157871C19.0216 0.116001 19.005 0.0758488 18.9753 0.0462428C18.9457 0.016636 18.9055 0 18.8637 0H15.3044C15.2631 0.000752335 15.2237 0.0177157 15.1947 0.0472409C15.1657 0.0767663 15.1494 0.116494 15.1494 0.157871V20.9394C15.1494 20.9805 15.1658 21.0199 15.1948 21.049C15.2239 21.0781 15.2633 21.0944 15.3044 21.0944H19.1163C19.1577 21.0944 19.1974 21.0782 19.2269 21.0492C19.2565 21.0202 19.2734 20.9808 19.2742 20.9394V12.0786C19.2742 10.3563 20.4223 9.13641 22.2594 9.13641C24.2686 9.13641 24.7767 10.7898 24.7767 12.4746V20.9394C24.7767 20.9805 24.793 21.0199 24.8221 21.049C24.8511 21.0781 24.8906 21.0944 24.9317 21.0944H28.7348C28.7763 21.0944 28.816 21.0782 28.8456 21.0492C28.8751 21.0202 28.8921 20.9808 28.8929 20.9394V11.9695C28.8929 11.6623 28.8929 11.3609 28.8527 11.0682C28.7873 10.1088 28.548 9.16919 28.1464 8.29541Z" fill="white"/>
</svg>
