<svg width="21" height="24" viewBox="0 0 21 24" fill="none" xmlns="http://www.w3.org/2000/svg">
<path d="M18.3855 5.13232C18.2219 5.04854 18.0627 4.9567 17.9084 4.85714C17.4601 4.56354 17.049 4.21763 16.6841 3.82684C15.7699 2.7912 15.4285 1.74064 15.3036 1.00577H15.3079C15.2034 0.39463 15.2465 0 15.2541 0H11.0921V15.9377C11.0921 16.151 11.0921 16.3633 11.0835 16.5723C11.0835 16.5979 11.0803 16.6214 11.0792 16.6502C11.0792 16.6608 11.0792 16.6736 11.076 16.6854V16.695C11.0323 17.2667 10.8474 17.819 10.5375 18.3033C10.2277 18.7876 9.80247 19.189 9.29921 19.4723C8.77418 19.7682 8.18034 19.9233 7.57629 19.9224C5.638 19.9224 4.06583 18.3567 4.06583 16.423C4.06583 14.4882 5.638 12.9225 7.57629 12.9225C7.94349 12.9225 8.30853 12.9801 8.65742 13.0932L8.6628 8.89517C7.60322 8.75977 6.52681 8.8434 5.5015 9.14079C4.4762 9.43818 3.52427 9.94287 2.7058 10.623C1.98848 11.2401 1.38539 11.9764 0.923657 12.7988C0.748135 13.0985 0.0848101 14.3048 0.00512498 16.2609C-0.0454858 17.3701 0.291561 18.522 0.452008 18.9966V19.0073C0.552152 19.2867 0.944117 20.2424 1.5816 21.0476C2.09567 21.694 2.70306 22.2618 3.3842 22.7328V22.7221L3.3939 22.7328C5.40756 24.0873 7.64197 23.9988 7.64197 23.9988C8.02855 23.9828 9.32398 23.9988 10.7949 23.3087C12.4263 22.543 13.3545 21.4028 13.3545 21.4028C13.948 20.7214 14.4199 19.9448 14.7501 19.1065C15.127 18.1252 15.2519 16.9499 15.2519 16.4806V8.02378C15.3025 8.05364 15.9755 8.49414 15.9755 8.49414C15.9755 8.49414 16.9447 9.10955 18.4555 9.50951C19.5387 9.79428 21 9.85508 21 9.85508V5.76266C20.4885 5.81812 19.4494 5.65814 18.3844 5.13339L18.3855 5.13232Z" fill="#161616"/>
</svg>
